<svg t="1620199187755" class="icon" viewBox="0 0 1024 1024" version="1.1" xmlns="http://www.w3.org/2000/svg" p-id="2328" width="128" height="128"><path d="M739.555556 426.666667a227.555556 227.555556 0 1 1-166.997334 72.988444l31.630222 50.631111a170.666667 170.666667 0 1 0 121.287112-66.161778l-32.881778-52.622222A228.522667 228.522667 0 0 1 739.555556 426.666667zM187.335111 539.022222l34.360889 53.475556a113.777778 113.777778 0 1 0 108.231111 168.334222l31.829333 49.550222a170.666667 170.666667 0 1 1-174.421333-271.36zM485.546667 170.666667l89.201777 150.243555 10.894223 14.990222-1.393778 0.995556 179.768889 302.791111a28.444444 28.444444 0 0 1-47.047111 31.800889l-1.848889-2.730667-177.066667-298.268444-227.783111 165.660444 83.541333 131.242667a28.444444 28.444444 0 0 1-46.08 33.251556l-1.934222-2.702223-199.111111-312.888889-0.568889-1.052444H85.333333a28.444444 28.444444 0 0 1-3.328-56.689778L85.333333 327.111111h170.666667a28.444444 28.444444 0 0 1 3.328 56.689778L256 384H213.418667l66.218666 104.049778 229.205334-166.684445L453.148444 227.555556H284.444444a28.444444 28.444444 0 0 1-28.245333-25.116445L256 199.111111a28.444444 28.444444 0 0 1 25.116444-28.245333L284.444444 170.666667h201.102223z" p-id="2329" fill="#ffffff"></path></svg>
